<?xml version='1.0' encoding='utf-8'?>
<svg xmlns="http://www.w3.org/2000/svg" viewBox="0 0 3014 3014"> <path transform="scale(2.9441)" d="m-0-0h1024v1024h-1024v-1024z" fill="#1C87DA"/> <path transform="scale(2.9441)" d="m497.84 142.71 0.479-0.056c14.323-0.85 28.87-0.083 43.157 1.017 81.787 6.302 158.3 40.3 218.98 95.352 71.826 65.159 114.28 160.01 118.88 256.5 4.722 99.066-32.345 196.09-98.795 269.17-45.692 50.255-107.61 87.871-173.21 105.45-26.061 6.984-52.926 10.683-79.842 11.966-15.443 1.049-31.343 0.302-46.752-0.982-76.665-6.389-149.8-36.915-207.76-87.56-12.474-10.901-24.6-22.344-35.58-34.76-54.509-61.638-87.355-140.53-92.637-222.62-3.465-53.873 4.717-111 24.568-161.27 15.729-39.823 38.665-76.23 66.81-108.36 50.83-58.037 121.75-99.779 197.25-115.93 21.318-4.561 42.742-6.492 64.448-7.919z" fill="#012C70"/> <path transform="scale(2.9441)" d="m622.84 702.51 5.226-3.626 3.911 1.311c-1.206 1.393-2.247 2.455-3.797 3.46-2.641 0.342-3.047 0.256-5.34-1.145z" fill="#53C2A4"/> <path transform="scale(2.9441)" d="m622.84 702.51c2.293 1.401 2.699 1.487 5.34 1.145-2.866 2.303-9.205 7.258-12.714 7.704 1.97-3.09 4.819-6.205 7.374-8.849z" fill="#0E97AD"/> <path transform="scale(2.9441)" d="m349.29 397.62-8.691 0.093c2.292-2.61 5.205-4.574 8.063-6.514 8.037-5.454 17.267-9.721 26.74-11.931-2.63 1.885-5.721 3.072-8.599 4.533-6.807 3.458-12.477 8.099-17.513 13.819z" fill="#FEFFFE"/> <path transform="scale(2.9441)" d="m586.41 397.58-10.012 0.095c11.741-11.937 27.658-18.759 44.128-20.711-3.502 2.636-7.888 3.905-11.771 5.94-7.705 4.037-15.665 9.048-22.345 14.676z" fill="#FEFFFE"/> <path transform="scale(2.9441)" d="m396.94 376.77c18.977 1.321 37.563 9.101 52.174 21.256l-6.06-0.061c-3.395-3.126-9.205-4.824-13.452-6.63l-18.726-8.205c-4.673-1.996-9.628-3.619-13.936-6.36z" fill="#FEFFFE"/> <path transform="scale(2.9441)" d="m760.01 475.96 1e-3 -9.228c10.47 1.815 19.427 7.283 25.568 15.979 6.517 9.229 7.859 20.673 6.029 31.58-2.642-3.448-4.04-8.313-5.999-12.19-5.214-10.32-14.907-21.497-25.599-26.141z" fill="#FEFFFE"/> <path transform="scale(2.9441)" d="m246.3 536.43c-5.714-5.1-9.601-11.202-12.011-18.473-3.307-9.974-3.175-22.085 1.581-31.536 5.419-10.768 14.775-16.613 25.925-20.227l0.192 10.058c-10.216 5.157-17.281 12.836-20.838 23.739-3.259 9.992-3.474 20.085 1.396 29.52l3.755 6.919z" fill="#FEFFFE"/> <path transform="scale(2.9441)" d="m312.64 648.24c-7.805-1.22-14.612-4.854-20.156-10.49-10.582-10.757-10.023-22.457-10.005-36.363l0.165-23.397c3.861 3.72 8.565 7.729 13.289 10.293l0.396 0.207 0.052 24.122c-0.019 6.212-0.513 12.829 0.99 18.888l0.176 0.741c1.488 5.956 5.205 10.131 10.498 13.132l5.362 2.443-0.767 0.424z" fill="#FEFFFE"/> <path transform="scale(2.9441)" d="m722.38 593.25c0.727 1.599 0.272 4.6 0.222 6.389-0.192 6.931-0.106 13.265-2.571 19.883-2.734 7.341-6.058 14.428-10.116 21.132-1.522 2.515-3.693 4.863-5.027 7.404-7.711-0.788-16.256-0.059-24.058-0.074 0.332-1.582 2.921-4.247 3.924-5.644l9.491-13.878c6.588-10.152 12.038-20.868 16.66-32.036 4.005-0.729 7.673-1.707 11.475-3.176z" fill="#1C87DA"/> <path transform="scale(2.9441)" d="m722.38 593.25c7.865-3.513 14.14-7.784 20.113-13.977l2e-3 21.904c-9e-3 5.832 0.286 11.848-1.23 17.537-1.811 6.804-6.181 13.758-11.086 18.743-6.417 6.521-15.774 10.387-24.885 10.603l-0.406-2e-3c1.334-2.541 3.505-4.889 5.027-7.404 4.058-6.704 7.382-13.791 10.116-21.132 2.465-6.618 2.379-12.952 2.571-19.883 0.05-1.789 0.505-4.79-0.222-6.389z" fill="#244686"/> <path transform="scale(2.9441)" d="m246.3 536.43-3.755-6.919c-4.87-9.435-4.655-19.528-1.396-29.52 3.557-10.903 10.622-18.582 20.838-23.739l-0.409 68.821c-4.599-1.453-12.508-4.453-15.278-8.643z" fill="#FED569"/> <path transform="scale(2.9441)" d="m375.4 379.26c6.981-2.04 14.277-3.032 21.542-2.493 4.308 2.741 9.263 4.364 13.936 6.36l18.726 8.205c4.247 1.806 10.057 3.504 13.452 6.63l-93.768-0.35c5.036-5.72 10.706-10.361 17.513-13.819 2.878-1.461 5.969-2.648 8.599-4.533z" fill="#FED569"/> <path transform="scale(2.9441)" d="m300.86 791.33-3.841-2.895c1.488-5.683 6.219-12.302 9.394-17.306 20.43-32.192 48.409-58.716 79.923-79.921l9.161 7.184c-10.276 6.745-19.867 14.212-29.422 21.931-15.158 12.247-29.816 25.509-42.288 40.543l-22.927 30.464z" fill="#FEFFFE"/> <path transform="scale(2.9441)" d="m628.07 698.89 10.576-8.249c11.694 7.134 22.885 16.393 32.896 25.701 18.988 17.654 35.107 36.898 47.185 59.936 2.202 4.201 5.429 9.126 6.663 13.655l-3.354 2.604-26.304-36.496c-18.518-21.482-40.228-40.054-63.751-55.84l-3.911-1.311z" fill="#FEFFFE"/> <path transform="scale(2.9441)" d="m570.32 726.86 21.278-9.069c-14.587 21.913-37.408 39.955-63.58 45.337-22.192 4.563-44.652 0.499-63.53-12.161-8.453-5.668-18.305-13.961-23.336-22.951 2.278-0.023 7.66 5.068 9.598 6.464 3.688 2.657 7.568 5.228 11.5 7.511 7.15 4.151 14.785 7.55 22.651 10.095 21.519 6.961 42.881 4.939 62.849-5.593 7.303-3.853 20.007-11.526 22.57-19.633z" fill="#FEFFFE"/> <path transform="scale(2.9441)" d="m620.53 376.96c20.374-2.681 41.279 3.947 57.424 16.47l4.814 4.148-96.354-2e-3c6.68-5.628 14.64-10.639 22.345-14.676 3.883-2.035 8.269-3.304 11.771-5.94z" fill="#FED569"/> <path transform="scale(2.9441)" d="m760.01 475.96c10.692 4.644 20.385 15.821 25.599 26.141 1.959 3.877 3.357 8.742 5.999 12.19-0.593 3.767-2.103 7.237-3.939 10.553-6.386 11.53-15.203 16.659-27.526 20.255l-0.133-69.139z" fill="#FED569"/> <path transform="scale(2.9441)" d="m296.33 588.49c2.839 1.426 5.786 2.721 8.792 3.756 1.443 0.496 5.7 1.333 6.628 2.178 0.774 0.705 1.852 3.938 2.347 5l7.405 15.02c6.712 12.146 14.719 23.492 23.302 34.384l-25.027-0.221c-1.494-0.015-6.022 0.394-7.136-0.367l0.767-0.424-5.362-2.443c-5.293-3.001-9.01-7.176-10.498-13.132l-0.176-0.741c-1.503-6.059-1.009-12.676-0.99-18.888l-0.052-24.122z" fill="#1C87DA"/> <path transform="scale(2.9441)" d="m441.15 728.02c-1.792-2.33-4.321-5.597-5.212-8.359 11.111 5.843 23.813 9.772 36.06 12.425 12.413 2.689 24.772 4.511 37.5 4.646 20.517 0.217 41.283-3.849 60.82-9.868-2.563 8.107-15.267 15.78-22.57 19.633-19.968 10.532-41.33 12.554-62.849 5.593-7.866-2.545-15.501-5.944-22.651-10.095-3.932-2.283-7.812-4.854-11.5-7.511-1.938-1.396-7.32-6.487-9.598-6.464z" fill="#EFAC46"/> <path transform="scale(2.9441)" d="m725.01 438.6c5.096 2.368 9.1 5.061 12.627 9.478 1.26 1.577 2.187 3.384 3.42 4.994l-0.136 62.185-0.019 17.982c-3e-3 4.803 0.167 9.766-0.899 14.479-1.585 7.005-5.232 13.803-10.353 18.831-5.793 5.688-11.865 8.501-19.71 10.36-0.856-1.676-0.446-4.339-0.438-6.246 0.023-5.211 0.2-10.443-0.119-15.646 1.883-1.534 3.722-2.789 5.472-4.516 4.857-4.793 7.611-9.935 9.024-16.659 0.917-4.366 0.68-8.998 0.693-13.434l0.034-20.93 0.404-60.878z" fill="#47CBD7"/> <path transform="scale(2.9441)" d="m709.38 555.01c0.319 5.203 0.142 10.435 0.119 15.646-8e-3 1.907-0.418 4.57 0.438 6.246l-125.42 0.429c-1.556-0.043-3.036-0.214-4.418-0.981-6.296-3.493-12.508-11.816-17.463-17.135l100.1 0.305 23.418-0.074c5.116-0.025 11.183 0.405 16.094-1.121l0.75-0.252c2.37-0.77 4.262-1.782 6.383-3.063z" fill="#8098AD"/> <path transform="scale(2.9441)" d="m522.43 862.5c4.335-2.24 9.702-2.668 14.391-4.132l30.658-10.739c49.952-19.735 92.797-51.45 128.25-91.588l26.304 36.496c-47.961 35.62-104.07 59.172-163.29 67.271-11.592 1.586-24.69 3.576-36.317 2.692z" fill="#0E97AD"/> <path transform="scale(2.9441)" d="m654.84 596.31 35.284 0.075c-3.997 9.373-9.432 18.179-14.993 26.694-24.361 37.306-58.042 65.319-99.475 81.916-43.698 17.505-90.433 16.149-133.52-2.413-15.964-6.876-30.885-16.197-44.483-27.002-4.359-3.465-9.473-7.545-13.074-11.822 2.556 0.089 3.78 1.876 5.905 3.158 6.574 3.968 13.823 7.209 20.869 10.258 11.885 5.145 24.031 9.596 36.775 12.12 17.29 3.425 35.841 3.811 53.375 2.717 12.793-0.799 24.991-2.252 37.422-5.445 13.93-3.578 28.07-8.587 40.743-15.435 5.869-3.172 11.196-7.612 16.551-11.572 4.554-3.368 9.297-6.484 13.654-10.116 14.83-12.363 28.829-27.685 39.538-43.791 2.002-3.011 3.592-6.235 5.431-9.342z" fill="#EFAC46"/> <path transform="scale(2.9441)" d="m294.58 401.82-9.99 5.982c5.465-22.457 13.563-44.549 24.87-64.756 18.737-33.484 47.541-63.467 80.288-83.487 53.788-32.884 117.65-42.423 178.73-27.486 58.018 14.188 108.66 52.231 139.56 103.19 13.326 21.977 23.732 47.576 28.036 72.984l-0.57 0.259-1.954-2.179c-4.395-13.7-11.081-27.236-17.903-39.873-28.129-52.102-80.244-93.905-136.94-110.76-57.871-17.203-120.7-12.272-174.03 16.648-38.04 20.629-67.58 48.377-89.875 85.452-8.481 14.103-15.507 28.181-20.217 44.022z" fill="#FEFFFE"/> <path transform="scale(2.9441)" d="m309.82 574.69c-8.217-2.574-15.187-8.265-20.283-15.115-3.434-4.615-6.52-10.528-7.616-16.212-1.358-7.051-0.773-15.11-0.802-22.273l-0.1-37.117-0.047-22.84c-9e-3 -4.524-0.361-9.392 0.336-13.852l0.13-0.784c1.064-7.074 3.879-13.436 8.887-18.607 6.973-7.202 15.629-11.426 25.68-11.548l270-0.224 84.07 0.057 25.388 0.035c5.178 0.011 10.701-0.257 15.841 0.367 7.236 0.879 14.537 4.844 19.676 9.919 7.669 7.574 9.966 16.016 10.084 26.568-1.233-1.61-2.16-3.417-3.42-4.994-3.527-4.417-7.531-7.11-12.627-9.478-1.572-0.819-3.003-1.058-4.749-1.12l-35.183-0.113-61.429-0.147-197.94-0.183-75.475-5e-3 -21.865 0.011c-4.247 5e-3 -9.579-0.455-13.675 0.712-5.664 1.613-10.481 5.815-13.123 11.022-1.137 2.239-1.841 4.643-2.001 7.148-0.402 6.269-0.102 12.716-0.102 19.008l0.015 35.467 0.033 29.557c6e-3 5.132-0.699 11.788 0.618 16.72 1.037 3.753 2.093 7.31 4.085 10.683 0.925 1.568 1.962 3.038 3.179 4.395 0.766 0.854 2.129 1.849 2.419 2.943z" fill="#FEFFFE"/> <path transform="scale(2.9441)" d="m384.58 663.76c-6.113-4.878-11.634-10.948-16.826-16.791-13.489-15.18-24.837-32.093-34.161-50.138l75.893 0.162 21.714 4e-3c3.936-3e-3 8.203 0.327 12.089-0.294l0.715-0.125c4.304-0.709 8.443-2.458 11.955-5.061 8.281-6.135 15.453-15.175 22.606-22.621l25.06-25.607c2.178-2.335 4.358-4.878 7.792-4.888 1.38-4e-3 2.59 0.101 3.796 0.831 2.555 1.546 4.833 4.276 6.944 6.406l12.596 12.823 18.379 18.468c5.675 5.661 11.281 11.81 18.339 15.781 2.731 1.536 5.916 2.814 9.039 3.211 8.1 1.029 17.337 0.172 25.582 0.157l48.751 0.234c-1.839 3.107-3.429 6.331-5.431 9.342-10.709 16.106-24.708 31.428-39.538 43.791-4.357 3.632-9.1 6.748-13.654 10.116-5.355 3.96-10.682 8.4-16.551 11.572-12.673 6.848-26.813 11.857-40.743 15.435-12.431 3.193-24.629 4.646-37.422 5.445-17.534 1.094-36.085 0.708-53.375-2.717-12.744-2.524-24.89-6.975-36.775-12.12-7.046-3.049-14.295-6.29-20.869-10.258-2.125-1.282-3.349-3.069-5.905-3.158z" fill="#FED569"/> <path transform="scale(2.9441)" d="m480.29 618.54c3.82 0.668 6.357 2.9 9.493 4.983 8.079 5.365 17.942 8.179 27.642 6.664l0.822-0.137c4.228-0.656 8.095-1.923 11.932-3.838 3.873-1.934 8.845-7.287 13.068-7.32 2.628-0.021 4.851 0.753 6.663 2.696 1.643 1.763 2.924 4.447 2.574 6.91-0.493 3.466-3.802 5.86-6.298 7.987-4.651 3.493-9.698 6.336-15.233 8.162-14.022 4.627-30.415 4.221-43.698-2.564-4.482-2.289-13.538-7.486-14.921-12.603-0.559-2.069-0.392-4.104 0.653-5.982 1.654-2.974 4.132-4.135 7.303-4.958z" fill="#012C70"/> <path transform="scale(2.9441)" d="m395.5 698.39 13.491 8.551c1.248 0.787 3.738 1.869 4.67 2.873 0.376 0.405 0.894 2.253 1.138 2.841l2.808 6.263c3.235 6.93 6.888 13.322 11.247 19.614 18.212 26.293 50.464 43.658 82.55 43.719 8.508 0.016 16.997-1.452 25.222-3.551 29.592-7.554 56.998-30.402 72.209-56.498 1.173-2.012 4.846-10.095 6.632-10.842 3.509-0.446 9.848-5.401 12.714-7.704 1.55-1.005 2.591-2.067 3.797-3.46 23.523 15.786 45.233 34.358 63.751 55.84-35.456 40.138-78.301 71.853-128.25 91.588l-30.658 10.739c-4.689 1.464-10.056 1.892-14.391 4.132-11.634 0.989-23.519 0.164-35.144-0.623-46.313-3.135-91.064-15.439-132.51-36.3-19.052-9.589-37.33-20.77-53.911-34.244l22.927-30.464c12.472-15.034 27.13-28.296 42.288-40.543 9.555-7.719 19.146-15.186 29.422-21.931z" fill="#47CBD7"/> <path transform="scale(2.9441)" d="m294.58 401.82c4.71-15.841 11.736-29.919 20.217-44.022 22.295-37.075 51.835-64.823 89.875-85.452 53.33-28.92 116.16-33.851 174.03-16.648 56.696 16.854 108.81 58.657 136.94 110.76 6.822 12.637 13.508 26.173 17.903 39.873-4.562-3.035-8.943-5.383-14.11-7.216-2.752-0.784-5.715-1.077-8.54-1.544-1.164-0.058-3.706-0.185-4.646-0.787-0.6-0.385-1.552-1.938-2.027-2.525l-5.829-6.913c-3.239-3.629-6.792-7.144-10.547-10.236-19.13-15.751-44.371-22.237-68.834-19.737-27.371 2.796-51.222 18.937-68.26 39.818l-63.367 0.201-10.362-2e-3c-0.343 0-2.204 0.138-2.488-1e-3 -1.254-0.614-4.301-5.171-5.447-6.443-2.481-2.756-5.182-5.377-7.971-7.816-19.32-16.898-47.669-27.3-73.439-25.465-19.974 1.422-39.919 8.587-55.429 21.489-6.6 5.489-12.143 11.947-17.751 18.405-2.74 1.107-6.789 0.59-9.782 0.814l-10.137 3.448z" fill="#47CBD7"/> <path transform="scale(2.9441)" d="m304.72 398.37c0.857-1.84 2.311-3.493 3.492-5.157l7.419-10.159c6.522-8.663 15.232-16.955 24.111-23.165 21.095-14.755 46.098-19.659 71.366-15.18 19.382 3.436 35.659 11.062 51.144 23.185 5.896 4.616 11.759 9.718 16.038 15.907l0.382 0.564 63.778-0.017c0.837-0.041 3.08 0.059 3.782-0.249 1.354-0.594 4.268-4.764 5.412-6.015 19.378-21.173 46.428-33.836 75.122-34.966 16.696-0.657 35.374 4.188 49.61 12.948 8.576 5.278 16.002 11.687 23.339 18.537 6.468 5.948 12.566 12.166 17.251 19.645 0.949 1.515 2.347 3.033 2.473 4.864-2.752-0.784-5.715-1.077-8.54-1.544-1.164-0.058-3.706-0.185-4.646-0.787-0.6-0.385-1.552-1.938-2.027-2.525l-5.829-6.913c-3.239-3.629-6.792-7.144-10.547-10.236-19.13-15.751-44.371-22.237-68.834-19.737-27.371 2.796-51.222 18.937-68.26 39.818l-63.367 0.201-10.362-2e-3c-0.343 0-2.204 0.138-2.488-1e-3 -1.254-0.614-4.301-5.171-5.447-6.443-2.481-2.756-5.182-5.377-7.971-7.816-19.32-16.898-47.669-27.3-73.439-25.465-19.974 1.422-39.919 8.587-55.429 21.489-6.6 5.489-12.143 11.947-17.751 18.405-2.74 1.107-6.789 0.59-9.782 0.814z" fill="#0E97AD"/> <path transform="scale(2.9441)" d="m314.5 397.56c-1.485 0.147-2.969-0.05-4.451-0.177 0.447-1.588 1.937-3.465 2.843-4.881 4.511-7.052 10.789-13.872 17.324-19.123 20.554-16.514 47.442-25.187 73.745-22.099 28.132 3.301 55.458 17.4 73.164 39.64l54.773-0.424 11.911-0.012c1.012-1e-3 3.517 0.305 4.394-4e-3 0.727-0.256 3.6-4.352 4.305-5.188 2.184-2.591 4.746-5.017 7.24-7.317 20.734-19.119 49.575-28.645 77.502-27.401 24.439 1.088 45.809 12.572 62.005 30.514 0.533 1.429 1.579 2.433 2.439 3.681l6.202 8.667c0.898 1.142 2.656 2.757 3.001 4.136-1.164-0.058-3.706-0.185-4.646-0.787-0.6-0.385-1.552-1.938-2.027-2.525l-5.829-6.913c-3.239-3.629-6.792-7.144-10.547-10.236-19.13-15.751-44.371-22.237-68.834-19.737-27.371 2.796-51.222 18.937-68.26 39.818l-63.367 0.201-10.362-2e-3c-0.343 0-2.204 0.138-2.488-1e-3 -1.254-0.614-4.301-5.171-5.447-6.443-2.481-2.756-5.182-5.377-7.971-7.816-19.32-16.898-47.669-27.3-73.439-25.465-19.974 1.422-39.919 8.587-55.429 21.489-6.6 5.489-12.143 11.947-17.751 18.405z" fill="#47CBD7"/> <path transform="scale(2.9441)" d="m300.13 556.67c-1.317-4.932-0.612-11.588-0.618-16.72l-0.033-29.557-0.015-35.467c0-6.292-0.3-12.739 0.102-19.008 0.16-2.505 0.864-4.909 2.001-7.148 2.642-5.207 7.459-9.409 13.123-11.022 4.096-1.167 9.428-0.707 13.675-0.712l21.865-0.011 75.475 5e-3 197.94 0.183 61.429 0.147 35.183 0.113c1.746 0.062 3.177 0.301 4.749 1.12l-0.404 60.878-0.034 20.93c-0.013 4.436 0.224 9.068-0.693 13.434-1.413 6.724-4.167 11.866-9.024 16.659-1.75 1.727-3.589 2.982-5.472 4.516-2.121 1.281-4.013 2.293-6.383 3.063l-0.75 0.252c-4.911 1.526-10.978 1.096-16.094 1.121l-23.418 0.074-100.1-0.305-23.677-24.047c-3.321-3.349-6.639-7.143-10.337-10.062-5.574-4.4-12.626-6.738-19.731-5.829l-0.893 0.124c-3.434 0.432-6.423 1.217-9.402 3.028-5.851 3.558-10.695 9.518-15.459 14.38l-21.816 22.451-9.321 10.389c-1.886 2.096-4.038 4.719-6.502 6.146-1.758 1.017-3.843 1.135-5.822 1.229l-67.772 0.407-31.705-0.017c-6.497-3e-3 -13.132 0.219-19.611-0.233-2.647-0.184-8.783-0.71-10.775-2.49-0.29-1.094-1.653-2.089-2.419-2.943-1.217-1.357-2.254-2.827-3.179-4.395-1.992-3.373-3.048-6.93-4.085-10.683z" fill="#9CDAF4"/> <path transform="scale(2.9441)" d="m300.13 556.67c1.735 0.864 3.204 1.537 5.118 1.853l0.746 0.128c5.262 0.824 11.028 0.519 16.355 0.601l31.33 0.261 107.64-0.253-9.321 10.389c-1.886 2.096-4.038 4.719-6.502 6.146-1.758 1.017-3.843 1.135-5.822 1.229l-67.772 0.407-31.705-0.017c-6.497-3e-3 -13.132 0.219-19.611-0.233-2.647-0.184-8.783-0.71-10.775-2.49-0.29-1.094-1.653-2.089-2.419-2.943-1.217-1.357-2.254-2.827-3.179-4.395-1.992-3.373-3.048-6.93-4.085-10.683z" fill="#8098AD"/> <path transform="scale(2.9441)" d="m629.13 458.7c11.934-0.624 23.594 2.438 33.12 9.865 9.874 7.699 16.64 19.491 18.215 31.927 1.579 12.466-1.09 26.238-9.016 36.261-9.192 11.624-21.206 17.935-35.828 19.545-12.5 0.682-24.833-2.964-34.525-10.951-10.007-8.246-16.375-20.082-17.535-33.024-1.229-13.71 2.75-26.423 11.585-36.95 8.536-10.17 21.034-15.482 33.984-16.673z" fill="#012C70"/> <path transform="scale(2.9441)" d="m615.63 513.98c1.532-3e-3 3.353 0.153 4.756 0.807 1.905 0.888 3.733 2.837 4.402 4.848 0.728 2.188 0.338 4.788-0.795 6.755-1.319 2.288-3.295 2.91-5.711 3.595-1.213-0.145-2.494-0.266-3.658-0.651-1.819-0.602-3.863-2.234-4.67-3.996-0.925-2.019-1.082-4.376-0.229-6.447 1.131-2.745 3.333-3.77 5.905-4.911z" fill="#FEFFFE"/> <path transform="scale(2.9441)" d="m647.02 472.66 4.004 0.135c5.941 0.68 11.089 3.66 14.661 8.474 3.111 4.191 4.868 9.211 4.028 14.467l-0.133 0.768c-0.48 2.964-1.49 5.693-3.165 8.203-3.772 5.653-8.783 7.987-15.289 9.151-1.599 0.122-3.232 0.251-4.832 0.075-5.562-0.609-10.207-3.639-13.579-8.003-3.236-4.188-5.185-9.873-4.394-15.192l0.121-0.734c0.518-3.325 1.509-6.536 3.58-9.25 3.827-5.015 8.982-7.095 14.998-8.094z" fill="#FEFFFE"/> <path transform="scale(2.9441)" d="m388.99 458.21c12.423-0.864 25.662 3.568 35.109 11.584 9.838 8.347 15.292 19.709 16.5 32.455 1.218 12.852-2.487 25.451-10.682 35.449-9.57 11.674-21.892 17.456-36.681 18.833l-8.624-0.327c-9.972-1.331-18.72-4.364-26.579-10.82-9.842-8.084-16.33-20.352-17.51-33.035-1.222-13.138 2.96-26.199 11.525-36.284 9.779-11.515 22.097-16.707 36.942-17.855z" fill="#012C70"/> <path transform="scale(2.9441)" d="m373.04 513.56c1.561-0.083 2.843 3e-3 4.335 0.525 2.323 0.814 4.235 2.992 5.14 5.24 0.707 1.755 0.844 4.172 0.021 5.914-1.214 2.572-3.624 3.795-6.14 4.765-1.316 0.034-2.555 0.038-3.844-0.267-2.364-0.558-4.244-2.028-5.428-4.157-1.039-1.867-1.008-4.646-0.279-6.629 1.064-2.891 3.543-4.211 6.195-5.391z" fill="#FEFFFE"/> <path transform="scale(2.9441)" d="m406.12 472.65c4.083-0.293 8.613 0.868 12.127 2.904 4.385 2.54 8.289 7.404 9.543 12.327 1.318 5.178 0.459 10.838-2.301 15.414-3.314 5.494-8.131 8.332-14.222 9.732-5.193 0.342-9.331-7e-3 -13.796-2.918-5.348-3.487-8.407-9.092-9.566-15.253-0.826-4.392 0.738-10.449 3.342-14.027 3.768-5.178 8.773-7.242 14.873-8.179z" fill="#FEFFFE"/> <path transform="scale(2.9441)" d="m505.08 161.75 6.174-0.066c92.366 0.82 182.1 36.242 247.15 102.54 65.587 66.844 102.47 157.45 101.58 251.21-0.777 81.732-30.571 160.98-82.916 223.57-11.183 13.372-23.796 25.425-36.231 37.603-5.037-9.85-10.16-19.614-16.27-28.857-18.202-27.532-43.004-51.98-70.773-69.792l7.7-7.709c0.68-0.699 2.161-2.644 2.95-3.039 1.128-0.566 40.264 0.358 46.504-0.519l0.807-0.123c13.155-1.91 24.373-8.113 33.617-17.584 8.067-8.265 13.601-19.658 15.022-31.155 0.917-7.422 0.39-15.332 0.344-22.809l-0.215-31.208c11.906-1.482 23.226-6.568 32.035-14.726 11.667-10.804 18.603-24.893 19.203-40.828l0.056-2.01c0.298-24.888-15.325-47.737-39.018-55.709-1.577-0.531-12.814-3.009-12.971-3.159-0.048-0.046-0.177-6.16-0.198-6.726-0.542-14.683-2.345-29.363-5.801-43.65-10.009-41.383-29.589-80.031-58.635-111.34-32.428-34.955-75.39-60.974-121.72-72.469-17.869-4.433-35.989-6.46-54.348-7.175l-6.887-0.039c-65.149-0.131-130.54 25.681-176.84 71.885-44.702 44.607-73.794 106.28-73.892 170-9.322 1.358-19.027 5.495-26.486 11.214-11.929 9.144-19.397 22.877-21.34 37.705-2.097 16.001 1.592 31.946 11.568 44.741 9.85 12.633 23.612 20.734 39.517 22.679l-0.123 51.904c0.452 12.641 4.408 23.414 12.863 32.935 18.912 21.292 45.453 17.998 71.255 17.877l8.089-0.056c0.383-4e-3 2.067-0.125 2.322-0.023 0.676 0.27 2.47 2.477 3.075 3.083l10.295 10.01c-9.237 6.514-18.597 12.973-27.286 20.213-15.262 12.716-29.303 27.491-41.177 43.424-7.84 10.52-14.597 21.7-21.472 32.856l-0.871-0.731c-14.289-12.561-27.59-27.216-39.48-42.068-45.939-57.387-73.591-127.2-77.878-200.75-5.433-93.206 25.298-185.13 87.602-254.88 53.602-60.01 127.11-99.703 206.55-112.25 15.398-2.433 31.016-3.104 46.554-3.99z" fill="#47CBD7"/> </svg>