<?xml version='1.0' encoding='utf-8'?>
<svg xmlns="http://www.w3.org/2000/svg" viewBox="0 0 3014 3014"> <path transform="scale(2.9441)" d="m0 0.5c1.857-0.84047 4.1326-0.53319 6.1345-0.53315l11.437 0.0016882 42.077-0.0020663 164.35 3.156e-4 799.01 0.033211c0.93 0.58531 0.64 0.20945 1 1v1023h-1024v-1023.5z" fill="#1ED6F1"/> <path transform="scale(2.9441)" d="m505.58 222.21 1.751-0.078c8.876-0.323 17.82 0.214 26.67 0.83 65.047 4.528 127.52 33.04 175.02 77.486 55.368 51.809 91.282 127.73 93.459 203.8 2.187 76.411-26.556 151.08-79.104 206.57-52.449 55.389-127.66 87.663-203.75 89.733-26.444 0.659-52.894-1.46-78.692-7.469-44.558-10.379-88.932-33.262-122.76-64.095-56.022-51.066-93.27-123.41-96.81-199.71-3.537-76.221 22.028-151.94 73.68-208.53 40.932-44.85 93.757-78.348 153.51-91.567 18.783-4.156 37.835-6.102 57.024-6.967z" fill="#004281"/> <path transform="scale(2.9441)" d="m786.57 501.89c1.378 9.037 0.386 19.103-0.22 28.217-3.423 51.509-21.774 102.2-52.414 143.79-42.342 57.464-108.1 98.364-178.86 108.99-46.538 6.989-96.69 3.762-140.93-13.13-23.885-9.12-46.871-22.589-67.398-37.754-56.821-41.975-96.52-108.48-106.76-178.25l-3.101-45.493 48.309-0.103c1.771 20.206 9.078 39.648 21.349 55.822 1.403 1.849 8.465 9.146 8.792 10.516 0.331 1.392 4e-3 3.82 6e-3 5.298l0.014 11.701 0.051 33.959c0.01 7.287-0.518 15.097 0.197 22.334 1.325 13.412 9.312 27.571 19.638 36.038 11.2 9.184 25.754 12.223 39.886 10.947l7.1-1.734c17.753-5.555 29.488-18.399 37.858-34.443 3.083 2.092 6.828 3.612 10.159 5.316 16.497 8.44 33.61 15.219 52.026 18.112 34.29 5.385 66.914 1.126 98.772-12.713 7.442-3.232 15.428-6.734 22.001-11.515 9.731 15.464 21.006 29.659 39.705 34.15 6.492 1.558 12.552 1.391 19.123 1.716 9.664-0.435 19.294-5.017 26.687-11.091 12.419-10.206 20.362-24.642 21.766-40.691 0.571-6.52 0.186-13.357 0.172-19.905l0.027-31.893 0.015-10.664c1e-3 -0.64-0.217-2.617 5e-3 -3.164 0.358-0.882 1.968-2.279 2.674-3.105 2.479-2.903 4.939-5.83 7.148-8.946 11.573-16.319 17.601-34.906 19.613-54.661l46.774 0.457-0.186-8.104z" fill="#1ED6F1"/> <path transform="scale(2.9441)" d="m603.04 657.79c9.731 15.464 21.006 29.659 39.705 34.15 6.492 1.558 12.552 1.391 19.123 1.716-2.055 1.073-8.025-0.318-9.225 0.854-6.523 6.372-16.034 11.496-24.031 15.713-35.504 18.721-75.682 29.294-115.94 28.611-39.64-0.673-78.741-9.622-113.67-28.734-5.127-2.805-10.115-5.956-14.931-9.264-2.878-1.976-5.877-4.496-8.94-6.069l7.1-1.734c17.753-5.555 29.488-18.399 37.858-34.443 3.083 2.092 6.828 3.612 10.159 5.316 16.497 8.44 33.61 15.219 52.026 18.112 34.29 5.385 66.914 1.126 98.772-12.713 7.442-3.232 15.428-6.734 22.001-11.515z" fill="#2FB5C8"/> <path transform="scale(2.9441)" d="m236.89 508.26c0.624-67.705 29.334-135 75.761-183.98 49.664-52.384 119.48-84.445 191.78-86.248 71.453-1.781 142.94 24.744 194.72 74.376 42.597 40.829 72.607 94.5 83.232 152.64 2.207 12.076 3.902 24.55 4.186 36.837l0.186 8.104-46.774-0.457 0.361-4.288c1.045-23.729-5.694-48.041-19.195-67.649-2.558-3.713-5.333-7.194-8.22-10.653-1.421-1.702-3.594-3.789-4.575-5.743-1.72-3.427-2.387-8.023-3.842-11.705-5.153-13.046-12.201-25.63-21.63-36.036-5.007-3.668-9.746-7.357-15.879-8.914-4.823-1.224-10.074-0.963-15.016-0.934l-20.411 0.083-18.153-0.098c-3.234-0.01-6.726-0.273-9.932 0.167-8.148 1.119-15.156 5.448-20.015 12.031l-9.871 16.071-127.13-0.022c-5.025-10.391-10.099-22.654-21.803-26.951-5.583-2.05-11.4-1.741-17.251-1.764l-18.555-0.045c-8.712-9e-3 -17.971-0.627-26.612 0.501-3.556 0.464-6.956 1.616-10.172 3.177-5.873 2.85-10.274 6.596-14.992 11.039-7.585 9.977-13.555 20.048-18.335 31.674-1.775 4.315-2.809 9.097-4.929 13.236-1.307 2.55-3.495 4.729-5.302 6.931-2.671 3.255-5.238 6.699-7.521 10.234-12.899 19.969-17.519 44.79-15.807 68.274l-48.309 0.103z" fill="#A1E9FA"/> <path transform="scale(2.9441)" d="m337.09 377.8 0.15-0.497 0.228-0.691 0.203-0.697c1.279-3.133 5.87-7.163 8.215-9.798 19.378-21.762 42.664-40.244 69.218-52.497 12.485-5.762 25.299-11.065 38.552-14.784 31.478-8.833 67.008-10.625 99.18-4.623 13.224 2.467 26.218 6.522 38.81 11.204 22.517 8.372 44.968 21.777 63.028 37.637 6.489 5.698 12.358 12.22 18.126 18.629 3.069 3.41 8.206 7.691 10.079 11.776-5.007-3.668-9.746-7.357-15.879-8.914-4.823-1.224-10.074-0.963-15.016-0.934l-20.411 0.083-18.153-0.098c-3.234-0.01-6.726-0.273-9.932 0.167-8.148 1.119-15.156 5.448-20.015 12.031l-9.871 16.071-127.13-0.022c-5.025-10.391-10.099-22.654-21.803-26.951-5.583-2.05-11.4-1.741-17.251-1.764l-18.555-0.045c-8.712-9e-3 -17.971-0.627-26.612 0.501-3.556 0.464-6.956 1.616-10.172 3.177-5.873 2.85-10.274 6.596-14.992 11.039z" fill="#1ED6F1"/> <path transform="scale(2.9441)" d="m337.09 377.8c4.718-4.443 9.119-8.189 14.992-11.039 3.216-1.561 6.616-2.713 10.172-3.177 8.641-1.128 17.9-0.51 26.612-0.501l18.555 0.045c5.851 0.023 11.668-0.286 17.251 1.764 11.704 4.297 16.778 16.56 21.803 26.951l127.13 0.022 9.871-16.071c4.859-6.583 11.867-10.912 20.015-12.031 3.206-0.44 6.698-0.177 9.932-0.167l18.153 0.098 20.411-0.083c4.942-0.029 10.193-0.29 15.016 0.934 6.133 1.557 10.872 5.246 15.879 8.914 9.429 10.406 16.477 22.99 21.63 36.036 1.455 3.682 2.122 8.278 3.842 11.705 0.981 1.954 3.154 4.041 4.575 5.743 2.887 3.459 5.662 6.94 8.22 10.653 13.501 19.608 20.24 43.92 19.195 67.649l-0.361 4.288c-2.012 19.755-8.04 38.342-19.613 54.661-2.209 3.116-4.669 6.043-7.148 8.946-0.706 0.826-2.316 2.223-2.674 3.105-0.222 0.547-4e-3 2.524-5e-3 3.164l-0.015 10.664-0.027 31.893c0.014 6.548 0.399 13.385-0.172 19.905-1.404 16.049-9.347 30.485-21.766 40.691-7.393 6.074-17.023 10.656-26.687 11.091-6.571-0.325-12.631-0.158-19.123-1.716-18.699-4.491-29.974-18.686-39.705-34.15-6.573 4.781-14.559 8.283-22.001 11.515-31.858 13.839-64.482 18.098-98.772 12.713-18.416-2.893-35.529-9.672-52.026-18.112-3.331-1.704-7.076-3.224-10.159-5.316-8.37 16.044-20.105 28.888-37.858 34.443l-7.1 1.734c-14.132 1.276-28.686-1.763-39.886-10.947-10.326-8.467-18.313-22.626-19.638-36.038-0.715-7.237-0.187-15.047-0.197-22.334l-0.051-33.959-0.014-11.701c-2e-3 -1.478 0.325-3.906-6e-3 -5.298-0.327-1.37-7.389-8.667-8.792-10.516-12.271-16.174-19.578-35.616-21.349-55.822-1.712-23.484 2.908-48.305 15.807-68.274 2.283-3.535 4.85-6.979 7.521-10.234 1.807-2.202 3.995-4.381 5.302-6.931 2.12-4.139 3.154-8.921 4.929-13.236 4.78-11.626 10.75-21.697 18.335-31.674z" fill="#004281"/> <path transform="scale(2.9441)" d="m360.92 684.27c-6.07-1.046-11.609-3.299-16.669-6.83-8.886-6.2-15.922-16.011-17.703-26.812l-0.138-0.878c-1.399-8.504-0.891-17.459-0.908-26.064l0.046-39.334 1.397 0.736c1.831 0.993 3.433 2.172 5.082 3.435l-0.14 14.864 0.15 27.255c0.05 5.476-0.286 11.909 1.036 17.244 2.228 12.512 7.448 23.356 18.079 30.855 3.102 2.188 6.799 3.387 9.768 5.529z" fill="#FEFEFE"/> <path transform="scale(2.9441)" d="m576.29 590.9c-1.046-1.812-3.524-5.052-3.879-6.976l16.698 11.212c1.543 4.925 4.762 9.747 7.378 14.191l13.24 22.289c6.455 11.059 12.067 23.467 19.877 33.594 4.72 6.119 10.761 12.191 17.645 15.842l5.837 2.972c-3.226-5e-3 -6.508-0.608-9.586-1.561-19.008-5.886-27.692-21.96-36.251-38.436-3.077-2.925-5.147-7.788-7.372-11.463l-17.201-29.941c-2.11-3.9-4.548-7.692-6.386-11.723z" fill="#FEFEFE"/> <path transform="scale(2.9441)" d="m576.29 590.9c0.857 0.486 1.792 1.001 2.459 1.739 4.027 4.456 7.359 11.273 10.428 16.518l13.065 23.382c1.743 3.45 3.838 7.107 4.845 10.842l0.162 0.646c-3.077-2.925-5.147-7.788-7.372-11.463l-17.201-29.941c-2.11-3.9-4.548-7.692-6.386-11.723z" fill="#2FB5C8"/> <path transform="scale(2.9441)" d="m336.02 406.82-5.636 4.148c2.35-6.497 4.752-12.76 8.398-18.675 5.01-8.127 12.879-17.248 22.626-19.412 4.324-0.959 9.23-0.67 13.645-0.673l21.611 0.039c6.758 0.027 14.553-0.71 21.158 0.368 2.153 0.351 4.313 1.548 6.098 2.764 5.543 3.776 11.393 13.3 12.644 19.831-1.28 0.285-2.551 0.5-3.701 1.164l-0.539 0.367c-1.528-5.192-3.888-10.322-8.769-13.171-0.979-0.572-2.007-0.932-3.137-1.05-8.024-0.836-16.905-0.052-25.003-0.03l-18.917-0.042c-4.404-0.018-9.097-0.387-13.365 0.85-9.902 2.87-21.936 13.493-26.695 22.541l-0.418 0.981z" fill="#FEFEFE"/> <path transform="scale(2.9441)" d="m336.02 406.82 0.418-0.981c4.759-9.048 16.793-19.671 26.695-22.541 4.268-1.237 8.961-0.868 13.365-0.85l18.917 0.042c8.098-0.022 16.979-0.806 25.003 0.03 1.13 0.118 2.158 0.478 3.137 1.05 4.881 2.849 7.241 7.979 8.769 13.171-1.354 1.553-2.525 2.96-3.497 4.782-1.74-0.156-4.236-2.152-5.824-3.019-2.416-1.32-4.844-2.307-7.5-3.049l-0.859-0.247c-5.183-1.378-11.545-0.869-16.887-0.93-8.833-0.101-17.875-0.409-26.646 0.739-12.491 1.635-24.004 5.966-35.091 11.803z" fill="#FED30F"/> <path transform="scale(2.9441)" d="m589.11 595.13c27.861 11.602 56.213 16.208 85.017 4.452 9.43-3.849 17.728-9.013 25.774-15.233l0.044 35.1c0.042 10.727 1.158 22.449-2.06 32.791-2.209 7.102-6.613 13.47-11.87 18.658-8.372 8.26-19.154 13.334-31.02 13.191l-1.908-0.071-5.837-2.972c-6.884-3.651-12.925-9.723-17.645-15.842-7.81-10.127-13.422-22.535-19.877-33.594l-13.24-22.289c-2.616-4.444-5.835-9.266-7.378-14.191z" fill="#D9851F"/> <path transform="scale(2.9441)" d="m690.53 607.75 0.896 0.273c-0.87 9.45 0.378 19.248-1.12 28.602-1.238 7.734-8.018 15.836-14.372 20.159-7.721 5.252-17.212 7.261-26.389 5.397-11.465-2.329-18.08-9.418-24.256-18.788l-16.497-27.134c2.82 1.425 5.942 2.419 9.021 3.112 24.331 5.473 51.533 1.752 72.717-11.621z" fill="#FED30F"/> <path transform="scale(2.9441)" d="m332.03 588.52c5.809 3.549 11.566 7.088 17.867 9.722 19.044 7.959 41.391 9.485 61.449 4.676 13.862-3.324 26.004-9.404 38.07-16.833l-30.876 53.912c-5.503 9.858-10.202 21.018-17.835 29.423-6.432 7.081-14.837 12.375-24.201 14.532-4.701 1.082-10.927 1.788-15.581 0.315-2.969-2.142-6.666-3.341-9.768-5.529-10.631-7.499-15.851-18.343-18.079-30.855-1.322-5.335-0.986-11.768-1.036-17.244l-0.15-27.255 0.14-14.864z" fill="#D9851F"/> <path transform="scale(2.9441)" d="m331.89 603.39 0.505 0.384c3.88 2.89 8.266 5.055 12.609 7.155 17.604 8.515 37.479 12.004 56.913 9.044 3.808-0.58 7.689-1.205 11.369-2.358-9.547 16.676-17.661 41.016-38.068 46.685-9.634 2.675-18.98 1.707-27.66-3.275-3.527-2.024-6.761-4.756-9.451-7.794-1.611-1.82-2.996-3.978-5.031-5.342-1.322-5.335-0.986-11.768-1.036-17.244l-0.15-27.255z" fill="#FED30F"/> <path transform="scale(2.9441)" d="m322.26 567c-2.554-2.417-4.801-4.917-6.935-7.713-16.98-22.244-23.654-48.976-19.791-76.615 3.36-24.038 17.357-47.553 36.755-62.064 10.76-8.049 23.587-14.291 36.917-16.525 7.592-1.273 15.285-1.239 22.958-1.242 5.531-2e-3 11.603-0.426 17.063 0.447l0.773 0.134c3.013 0.491 5.966 1.39 8.505 3.16 1.929 1.344 3.769 4.448 6.123 4.818l0.622 0.074c2.226 0.31 4.898 0.915 7.003-0.17 1.007-0.518 1.862-1.867 2.226-2.923 0.694-2.009-0.327-3.477-1.259-5.186l-0.353-0.636c4.303-0.931 9.055-0.641 13.437-0.664l22.058-0.08 72.925-0.082c13.604 0.028 27.703 0.832 41.253-0.24 1.081-4.522 2.51-8.966 4.653-13.106 3.446-6.654 7.966-12.794 15.552-14.952 3.612-1.028 7.405-0.811 11.121-0.823l14.995-0.013c9.998 8e-3 20.982-0.811 30.85 0.585 3.499 0.496 6.469 1.473 9.56 3.203 8.138 4.554 13.045 12.512 17.402 20.457 1.603 2.923 3.395 5.921 4.263 9.16l0.562 1.493-0.498 0.612c-8.283-4.873-16.677-9.719-25.995-12.326-7.303-2.043-14.538-2.501-22.067-2.607-13.49-0.189-33.674-0.836-43.922 9.261-0.827 0.815-1.512 1.494-2.516 2.1l-2.94-1.574c-2.203 1.061-4.744 2.455-5.587 4.924-0.384 1.126-0.18 2.518 0.418 3.566 0.765 1.339 2.021 2.326 3.521 2.681 2.881 0.683 6.96 0.151 9.476-1.485 2.625-1.707 4.635-4.476 7.457-5.856 5.675-2.776 12.429-3.718 18.655-4.32 8.694-0.841 18.112-0.979 26.723 0.634 23.343 4.371 45.013 20.529 58.242 39.972l1.993 3.108-0.375-0.186c-2.82-1.487-5.237-4.094-7.645-6.188l-10.639-8.479c-22.57-16.613-50.314-20.79-77.185-12.963-3.773 1.098-7.377 2.427-10.991 3.968-2.146 0.915-5.821 2.993-8.055 2.408-0.988-2.229-1.087-3.596-0.637-6-1.559-0.402-3.206 0.152-4.786 0.294l-11.765 0.978-41.921 0.316-71.802 0.22-38.679 0.402c-6.896-0.112-13.254-1.534-20.034-2.28-10.015-1.101-20.305-0.972-30.335-0.119-11.946 1.016-23.255 4.542-33.609 10.625-18.625 10.942-33.244 31.671-38.646 52.471-1.69 6.507-2.9 13.217-3.145 19.934-0.821 17.809 0.785 34.018 9.244 50.016 2.72 5.145 6.399 10.159 8.807 15.396z" fill="#FEFEFE"/> <path transform="scale(2.9441)" d="m593.56 402.97 0.183-0.829c1.473-6.856 1.011-13.315 7.799-17.519 1.802-1.116 3.779-1.715 5.872-1.97 7.746-0.944 16.5-0.11 24.341-0.11l20.495-0.027c3.773-0.011 7.857-0.397 11.528 0.554l0.845 0.235c5.871 1.581 10.418 3.884 14.758 8.267 3.046 3.076 5.543 7.104 8.041 10.649 0.948 1.346 1.899 3.25 3.514 3.791l0.562 1.493-0.498 0.612c-8.283-4.873-16.677-9.719-25.995-12.326-7.303-2.043-14.538-2.501-22.067-2.607-13.49-0.189-33.674-0.836-43.922 9.261-0.827 0.815-1.512 1.494-2.516 2.1l-2.94-1.574z" fill="#FED30F"/> <path transform="scale(2.9441)" d="m420.09 658.59c4.655-9.83 10.391-19.316 15.855-28.719l16.818-29.368c4.185-7.236 9.372-14.683 12.513-22.42l0.202-0.51 91.119-0.032 46.451 80.249c-6.573 4.781-14.559 8.283-22.001 11.515-31.858 13.839-64.482 18.098-98.772 12.713-18.416-2.893-35.529-9.672-52.026-18.112-3.331-1.704-7.076-3.224-10.159-5.316z" fill="#1ED6F1"/> <path transform="scale(2.9441)" d="m304.21 501.59c0.245-6.717 1.455-13.427 3.145-19.934 5.402-20.8 20.021-41.529 38.646-52.471 10.354-6.083 21.663-9.609 33.609-10.625 10.03-0.853 20.32-0.982 30.335 0.119 6.78 0.746 13.138 2.168 20.034 2.28l38.679-0.402 71.802-0.22 41.921-0.316 11.765-0.978c1.58-0.142 3.227-0.696 4.786-0.294-0.45 2.404-0.351 3.771 0.637 6 2.234 0.585 5.909-1.493 8.055-2.408 3.614-1.541 7.218-2.87 10.991-3.968 26.871-7.827 54.615-3.65 77.185 12.963l10.639 8.479c2.408 2.094 4.825 4.701 7.645 6.188l0.375 0.186c7.445 10.803 12.012 22.832 14.139 35.735 4.46 24.349-0.405 52.283-14.575 72.786-14.328 20.732-36.387 35.744-61.272 40.253-26.43 4.788-52.445-3.768-74.334-18.389-4.167-2.783-10.899-8.984-15.799-9.36-8.912-0.685-18.296-0.143-27.252-0.149l-53.391 0.078-17.126 0.132c-1.783 0.015-4.655-0.348-6.336 0.056-1.365 0.328-3.783 2.314-4.984 3.129l-14.205 9.49c-27.798 16.977-61.517 20.494-91.143 6.044-3.776-1.843-7.382-3.997-10.821-6.41-4.883-3.428-11.52-7.885-15.099-12.582-2.408-5.237-6.087-10.251-8.807-15.396-8.459-15.998-10.065-32.207-9.244-50.016z" fill="#FED30F"/> <path transform="scale(2.9441)" d="m508.89 509.6c3.422-0.194 6.809 0.591 9.759 2.363 3.475 2.087 6.128 5.713 7.014 9.664 0.913 4.07 0.158 8.737-2.143 12.248-2.754 4.203-6.51 5.547-11.17 6.588-3.41 0.022-6.826-0.44-9.861-2.101-3.507-1.92-5.972-5.491-6.888-9.349-0.961-4.047-0.026-8.745 2.178-12.24 2.665-4.228 6.443-6.054 11.111-7.173z" fill="#004281"/> <path transform="scale(2.9441)" d="m508.7 520.25c1.367-0.443 2.885-0.201 4.301-0.124 1.382 0.71 2.456 1.369 3.128 2.834 0.624 1.361 0.579 3.204 3e-3 4.577-0.705 1.68-1.789 2.335-3.381 3.069-0.929 0.29-2.028 0.45-3 0.36-1.511-0.141-2.8-1.093-3.744-2.223-1.28-1.531-1.093-2.913-0.865-4.74 1.014-1.771 1.789-2.715 3.558-3.753z" fill="#2FB5C8"/> <path transform="scale(2.9441)" d="m728.6 481.92c4.46 24.349-0.405 52.283-14.575 72.786-14.328 20.732-36.387 35.744-61.272 40.253-26.43 4.788-52.445-3.768-74.334-18.389-4.167-2.783-10.899-8.984-15.799-9.36-8.912-0.685-18.296-0.143-27.252-0.149l-53.391 0.078-17.126 0.132c-1.783 0.015-4.655-0.348-6.336 0.056-1.365 0.328-3.783 2.314-4.984 3.129l-14.205 9.49c-27.798 16.977-61.517 20.494-91.143 6.044-3.776-1.843-7.382-3.997-10.821-6.41-4.883-3.428-11.52-7.885-15.099-12.582-2.408-5.237-6.087-10.251-8.807-15.396-8.459-15.998-10.065-32.207-9.244-50.016 1.877 4.61 2.392 9.619 3.687 14.409 3.11 11.5 9.04 23.305 16.604 32.5 13.544 16.466 34.367 26.458 55.458 28.418 13.445 1.25 27.409-0.315 39.922-5.575 11.286-4.743 21.675-12.379 31.063-20.12 3.388-0.405 6.972-0.171 10.393-0.171l18.367 3e-3 59.838-0.032 22.757-0.022c2.112-2e-3 5.539-0.475 7.532-7e-3 1.245 0.292 3.205 2.243 4.269 3.081 3.232 2.546 6.483 5.159 9.946 7.387 10.81 6.95 23.175 12.936 35.801 15.583 21.199 4.444 44.327 1.047 62.647-10.854 22.771-14.793 37.778-35.998 43.26-62.78 1.456-7.116 1.334-14.404 2.844-21.486z" fill="#D9851F"/> <path transform="scale(2.9441)" d="m380.89 431.68c15.979-1.26 31.648 1.02 45.012 10.413 14.443 10.151 25.367 26.375 28.326 43.903 3.046 18.046-1.133 36.487-11.832 51.374-10.922 15.195-26.27 23.499-44.389 26.472l-1.55 0.247c-15.638 2.262-34.258-2.836-46.793-12.335-14.239-10.789-24.108-27.72-26.439-45.415-2.319-17.613 3.236-36.568 14.027-50.603 10.647-13.847 26.532-21.73 43.638-24.056z" fill="#004281"/> <path transform="scale(2.9441)" d="m384.8 441.7 0.347-0.075c12.943-1.344 26.756 2.786 36.97 10.785 12.386 9.699 20.465 23.596 22.241 39.345 1.725 15.302-2.896 29.976-12.593 41.808-9.554 11.658-22.326 18.538-37.281 19.993-9.972 0.448-20.414-0.288-29.494-4.801-13.707-6.813-24.252-19.854-29.023-34.311-4.614-13.983-3.843-28.279 2.837-41.5 6.649-13.163 17.594-23.748 31.806-28.293l0.889-0.279c4.411-1.418 8.7-2.19 13.301-2.672z" fill="#2FB5C8"/> <path transform="scale(2.9441)" d="m385.37 457.2 0.453-0.076c11.237-1.016 21.912 1.572 31.006 8.38 8.375 6.271 16.031 17.108 17.433 27.655l0.149 1.095 0.342 1.495c1.261 10.288-2.296 21.457-8.912 29.394-1.173 1.406-2.431 3.186-3.873 4.306-2.003 1.557-3.717 3.334-5.867 4.716l-0.596 0.377c-6.277 4.055-12.532 5.807-19.885 6.851-4.601 0.157-9.69 0.491-14.246-0.096-10.979-1.416-20.366-6.797-27.169-15.517-6.946-8.902-9.89-21.725-8.381-32.867l0.133-0.909c0.876-6.202 2.871-11.704 6.751-16.672 8.276-10.593 19.399-16.603 32.662-18.132z" fill="#004281"/> <path transform="scale(2.9441)" d="m386.33 468.21c4.277-0.653 9.982 0.357 14.365 0.638l-0.043 18.652 15.331 9e-3c1.007 5e-3 4.141-0.196 4.974 0.245 0.445 0.235 0.754 0.667 1.131 1 2.573 6.58 0.674 14.616-0.543 21.324l-20.541-0.33 0.047 20.204-5.429 0.54c-5.816 0.292-11.382 0.18-17.158-0.593l-0.062-20.227-20.367 0.274c-1.63-7.853-2.185-14.639-0.294-22.495l20.802 0.11-0.04-18.377 7.827-0.974z" fill="#FEFEFE"/> <path transform="scale(2.9441)" d="m632.92 427.7c18.437-1.572 37.982 4.898 52.052 16.858 14.491 12.319 23.009 30.865 24.358 49.689 1.225 17.106-4.452 34.406-15.58 47.448-12.094 14.174-29.116 22.812-47.627 24.263-17.962 1.8-37.25-3.829-51.432-14.991-14.776-11.629-23.82-29.358-25.966-47.866-2.048-17.664 3.484-36.103 14.663-49.862 12.582-15.485 29.993-23.418 49.532-25.539z" fill="#004281"/> <path transform="scale(2.9441)" d="m632.4 437.69c13.887-1.268 26.946 2.235 38.651 9.779 14.852 9.572 23.849 24.227 27.626 41.279l0.515 2.417c2.101 12.362-1.784 28.574-9.076 38.771-10.555 14.759-25.387 22.966-43.117 25.938-5.552 0.496-10.807 0.722-16.346-0.206-14.649-2.456-31.058-10.46-39.824-22.779l-0.575-0.816c-5.552-7.786-9.389-17.106-10.773-26.588-2.414-16.548 1.64-31.969 11.749-45.203 9.987-13.074 25.101-20.351 41.17-22.592z" fill="#0096B6"/> <path transform="scale(2.9441)" d="m652.68 522.07c1.778 0.609 2.891 2.342 3.706 3.96 2.277 4.517 2.653 10.131 0.969 14.917-1.735 4.931-5.443 8.219-10.111 10.318-4.964 2.233-10.788 1.84-15.753-0.135-3.973-1.58-7.49-4.332-9.223-8.326-2.001-4.611-2.4-10.03-0.28-14.68l1.643-2.594-0.084 0.479-0.121 0.801c-0.492 3.042-0.457 5.931 0.589 8.868 1.426 4.001 4.462 7.394 8.312 9.185 4.066 1.892 8.562 2.398 12.785 0.685 3.866-1.568 7.129-5.225 8.648-9.074 2.038-5.163 1.017-9.564-1.08-14.404z" fill="#004281"/> <path transform="scale(2.9441)" d="m618.28 486.53c1.989 0.378 3.656 2.36 4.785 3.964 2.475 3.517 2.802 8.155 1.922 12.256-1.124 5.245-4.245 10.122-8.882 12.927-5.024 3.038-10.416 4.014-16.1 2.461-4.759-1.3-8.859-3.988-11.275-8.378-1.715-3.116-2.807-7.924-1.846-11.428l0.313-0.878c1.603 4.825 3.529 8.937 8.134 11.567 4.275 2.442 9.24 3.028 13.924 1.403 4.253-1.476 7.762-4.907 9.5-9.039 2.238-5.322 1.523-9.686-0.475-14.855z" fill="#004281"/> <path transform="scale(2.9441)" d="m688.9 486.05c2.334 1.466 3.65 3.961 4.282 6.597 1.473 6.147 0.96 12.364-2.59 17.704-2.915 4.387-7.833 7.15-12.963 7.957-5.279 0.831-11.427-0.447-15.718-3.682-4.116-3.102-6.917-8.212-7.519-13.332-0.546-4.65 1.084-10.362 4.206-13.915 0.605-0.688 0.323-0.483 1.095-0.776-1.932 4.508-2.325 9.018-0.577 13.63 1.577 4.162 4.749 7.505 8.821 9.31 3.923 1.74 8.031 2.024 12.067 0.456 4.553-1.77 8.089-5.198 9.896-9.748 2.054-5.17 0.978-9.331-1-14.201z" fill="#004281"/> <path transform="scale(2.9441)" d="m653.16 452.56c2.427 0.939 3.78 3.731 4.764 6.055 1.806 4.265 2.189 8.926 0.328 13.224-2.114 4.882-5.822 8.851-10.858 10.757l-1.393 0.473-0.684 0.246c-4.995 1.682-11.692 0.742-16.264-1.748-4.222-2.3-7.553-6.291-8.807-10.952-1.193-4.438-0.275-9.736 1.853-13.752l0.444-0.208c-0.085 2.634-0.19 5.281 0.575 7.84 1.261 4.217 4.422 7.749 8.383 9.626 3.898 1.846 8.544 2.239 12.625 0.737 4.137-1.522 7.567-5.05 9.352-9.035 2.004-4.472 1.276-8.842-0.318-13.263z" fill="#004281"/> <path transform="scale(2.9441)" d="m622.54 456.66c0.232-0.118 0.789-1.351 0.945-1.66 1.203-2.38 2.504-4.561 4.624-6.259 3.783-3.031 8.927-4.225 13.7-3.561 5.445 0.756 8.218 3.131 11.348 7.385 1.594 4.421 2.322 8.791 0.318 13.263-1.785 3.985-5.215 7.513-9.352 9.035-4.081 1.502-8.727 1.109-12.625-0.737-3.961-1.877-7.122-5.409-8.383-9.626-0.765-2.559-0.66-5.206-0.575-7.84z" fill="#FEFEFE"/> <path transform="scale(2.9441)" d="m623.63 525.53c1.278-2.779 2.688-5.454 5.167-7.348 3.73-2.849 7.766-3.425 12.3-2.886 5.353 0.636 8.303 2.6 11.582 6.774 2.097 4.84 3.118 9.241 1.08 14.404-1.519 3.849-4.782 7.506-8.648 9.074-4.223 1.713-8.719 1.207-12.785-0.685-3.85-1.791-6.886-5.184-8.312-9.185-1.046-2.937-1.081-5.826-0.589-8.868l0.121-0.801 0.084-0.479z" fill="#FEFEFE"/> <path transform="scale(2.9441)" d="m659.69 486.6c1.255-1.786 2.686-3.412 4.325-4.858 3.293-2.904 7.818-3.605 12.049-3.173 5.645 0.577 9.312 3.245 12.833 7.478 1.978 4.87 3.054 9.031 1 14.201-1.807 4.55-5.343 7.978-9.896 9.748-4.036 1.568-8.144 1.284-12.067-0.456-4.072-1.805-7.244-5.148-8.821-9.31-1.748-4.612-1.355-9.122 0.577-13.63z" fill="#FEFEFE"/> <path transform="scale(2.9441)" d="m587.19 497.45c0.416-0.952 0.192-3.26 0.256-4.394 0.228-4.091 2.716-8.137 5.801-10.738 3.171-2.673 7.662-4.085 11.806-3.621 5.902 0.66 9.551 3.421 13.22 7.829 1.998 5.169 2.713 9.533 0.475 14.855-1.738 4.132-5.247 7.563-9.5 9.039-4.684 1.625-9.649 1.039-13.924-1.403-4.605-2.63-6.531-6.742-8.134-11.567z" fill="#FEFEFE"/> </svg>