<?xml version='1.0' encoding='utf-8'?>
<svg xmlns="http://www.w3.org/2000/svg" viewBox="0 0 3014 3014"> <path transform="scale(2.9441)" d="m-0-0h1024v1024h-1024v-1024z" fill="#1FD0DF"/> <path transform="scale(2.9441)" d="m93.62 14.75 914.37 0.0829 0.01 996.15-75.25-0.03-916.77-0.03-0.1123-996.04 77.757-0.1341z" fill="#55DAD1"/> <path transform="scale(2.9441)" d="m504.32 168.22c1.89-0.435 4.712-0.122 6.691-0.139 9.527-0.084 19.288 0.622 28.734 1.922 57.391 7.901 109.75 38.244 145.02 84.208l9.801-0.011c7.957-2e-3 16.536-0.548 24.414 0.5 12.261 1.63 24.365 8.297 32.977 17.019 6.856 6.943 12.065 15.869 14.62 25.303 1.867 6.895 1.906 13.652 1.958 20.732l0.079 20.397-0.047 59.205c0.578 0.464 0.279 0.299 1.07 0.572 6.609 2.285 13.096 5.595 18.882 9.521 11.849 8.036 21.74 19.33 28.125 32.137 3.442 6.904 6.292 14.607 7.673 22.212 0.592 3.263 0.649 6.756 1.464 9.95 2.063 8.086 5.083 16.221 7.627 24.197l32.948 101.58c4.122 13.188 9.479 26.428 12.232 39.971 2.629 12.929 0.766 26.822-4.146 39-6.609 16.389-21.287 30.991-37.93 37.139-5.71 2.109-11.674 3.634-17.737 4.264-5.215 0.541-10.734 0.207-15.984 0.207l-28.511-6e-3 -114.43-0.04c-1.499 0-5.331-0.48-6.622-2e-3 -0.923 0.343-3.171 2.99-3.882 3.715l-11.954 12.285-73.368 75.212-23.355 23.891c-4.509 4.6-8.949 9.541-13.802 13.775-2.367 2.065-4.933 3.39-7.803 4.602-5.56 1.819-12.706 1.327-17.787-1.599-6.123-3.525-11.237-9.855-16.176-14.854l-24.438-24.942-79.281-80.935-7.924-8.282c-0.528-0.589-2.047-2.699-2.564-2.89-1.128-0.418-4.489-2e-3 -5.799-3e-3l-19.533-8e-3 -93.833-0.044c-16.921-6e-3 -34.782 1.13-51.579-0.695-5.802-0.63-11.338-2.234-16.69-4.528-15.785-6.765-27.896-18.842-34.192-34.873-4.371-11.128-6.122-22.793-4.609-34.705 1.244-9.791 4.935-19.487 7.773-28.899l18.592-59.612 20.573-66.839 9.155-30.126c1.859-5.792 3.558-11.655 6.006-17.232 6.295-14.341 19.391-27.611 33.319-34.687 4.668-2.371 9.542-3.776 14.396-5.656l0.048-92.748c0.463-13.925 7.781-28.54 17.899-37.914 6.765-6.268 15.783-11.257 24.772-13.414 6.84-1.641 13.703-1.725 20.698-1.796l20.392 0.128 10.265-12.908c27.667-31.042 64.181-54.221 104.32-65.299 16.876-4.658 34.004-6.98 51.456-7.963z" fill="#1C469B"/> <path transform="scale(2.9441)" d="m215.21 676.36 9.798-0.373 0.039 26.026-9.779-0.028-0.058-25.625z" fill="#1FD0DF"/> <path transform="scale(2.9441)" d="m863.03 641.93c3.034 10.747-1.214 25.313-6.472 34.822-6.699 12.118-17.983 18.709-30.453 23.655l-0.155-26.125c8.142-3.198 15.555-6.81 22.632-12.012 1.724-1.266 3.776-2.501 5.004-4.276 3.989-5.131 7.297-9.885 9.444-16.064z" fill="#1FD0DF"/> <path transform="scale(2.9441)" d="m162.1 640.44c1.51 5.815 3.878 10.653 7.24 15.623 6.555 8.77 19.661 15.057 29.665 18.9l0.037 26.349c-13.802-4.328-23.736-9.928-31.506-22.713-7.108-11.698-8.695-24.954-5.436-38.159z" fill="#1FD0DF"/> <path transform="scale(2.9441)" d="m770.22 677.16 19.807-1e-3c3.107-6e-3 6.956-0.443 9.974 0.175l0.057 25.118-54.529 0.068c9.543-7.567 17.254-15.71 24.691-25.36z" fill="#10A2CF"/> <path transform="scale(2.9441)" d="m252.87 675.44c3.782 3.929 6.815 8.646 10.608 12.647 4.949 5.222 10.794 9.326 16.344 13.85-5.891 0.646-12.374 0.139-18.329 0.131l-36.442-0.048-0.039-26.026c2.395-0.441 5.138-0.166 7.574-0.159l13.121 0.032c2.304 1e-3 4.965 0.327 7.163-0.427z" fill="#10A2CF"/> <path transform="scale(2.9441)" d="m162.1 640.44c0.709-4.738 2.386-9.471 3.816-14.036l7.328-22.88 24.02-77.278c0.572 2.802 0.242 6.147 0.253 9.01l-0.06 20.707c-2.304 10.946-6.35 21.652-9.789 32.287l-10.553 34.749c-2.071 6.846-5.049 13.841-6.397 20.85-0.669 3.479-0.611 7.087-0.809 10.611-0.055 0.975-0.018 0.635-0.569 1.603-3.362-4.97-5.73-9.808-7.24-15.623z" fill="#FEFEFE"/> <path transform="scale(2.9441)" d="m826.1 558.85 0.159-32.63 36.774 115.7c-2.147 6.179-5.455 10.933-9.444 16.064 0.052-0.877 0.087-1.737 0.263-2.6 0.502-2.467 0.82-5.236 0.475-7.749-1.028-7.469-3.971-14.967-6.192-22.162l-10.656-33.955c-3.732-10.728-8.362-21.751-11.379-32.672z" fill="#FEFEFE"/> <path transform="scale(2.9441)" d="m826.1 558.85c3.017 10.921 7.647 21.944 11.379 32.672l10.656 33.955c2.221 7.195 5.164 14.693 6.192 22.162 0.345 2.513 0.027 5.282-0.475 7.749-0.176 0.863-0.211 1.723-0.263 2.6-1.228 1.775-3.28 3.01-5.004 4.276-7.077 5.202-14.49 8.814-22.632 12.012l0.147-115.43z" fill="#55DAD1"/> <path transform="scale(2.9441)" d="m197.45 555.96c0.958 4.741 0.858 9.914 0.964 14.742l0.257 24.421 0.327 79.837c-10.004-3.843-23.11-10.13-29.665-18.9 0.551-0.968 0.514-0.628 0.569-1.603 0.198-3.524 0.14-7.132 0.809-10.611 1.348-7.009 4.326-14.004 6.397-20.85l10.553-34.749c3.439-10.635 7.485-21.341 9.789-32.287z" fill="#55DAD1"/> <path transform="scale(2.9441)" d="m215.21 676.36-0.198-134.86-0.056-47.105c-2e-3 -8.48-0.438-17.217 0.259-25.651 0.442-5.347 1.78-10.873 3.609-15.911 6.175-17.016 19.962-28.712 35.971-36.091l-7e-3 10.167c-15.537 10.653-26.142 24.676-29.718 43.38-1.603 8.383-0.666 18.13-0.664 26.664l0.048 50.171 0.5 84.703 0.031 29.324c2e-3 4.86-0.349 10.002 0.023 14.834l-9.798 0.373z" fill="#FEFEFE"/> <path transform="scale(2.9441)" d="m768.1 426.1 0.08-11.958c17.893 9.146 31.707 22.215 38.024 41.751 1.582 4.892 2.818 10.154 3.187 15.292 0.62 8.642 0.194 17.575 0.206 26.244l9e-3 48.956 0.048 130.78-9.515-0.182c-0.461-5.156-0.16-10.606-0.205-15.797l-0.222-30.696 0.242-113.4 0.011-30.466c-0.01-6.469 0.313-13.165-0.636-19.571-0.961-6.488-3.703-13.557-6.999-19.202-4.998-8.559-14.266-19.16-24.23-21.76z" fill="#FEFEFE"/> <path transform="scale(2.9441)" d="m249.9 606.6 1.125 8.542c2.805 19.128 17.366 38.005 32.481 49.276 17.159 12.796 39.484 18.149 60.581 14.98 22.134-3.324 44.015-15.184 57.489-33.318 4.201-5.653 6.597-11.247 8.564-17.95l0.164 0.704c0.778 2.284 0.623 5.248 0.173 7.642l-1.975 8.472c-5.546 20.047-20.767 38.575-38.89 48.684-18.15 10.124-40.209 12.195-60.115 6.37-21.851-6.393-40.14-22.434-50.75-42.415-6.618-12.462-9.785-25.386-9.852-39.464-0.018-3.945-0.166-7.708 1.005-11.523z" fill="#558DC3"/> <path transform="scale(2.9441)" d="m772.1 599.91c3.867 25.015-1.303 50.317-16.479 70.898-11.979 16.247-31.096 28.175-51.152 31.267-20.4 3.146-41.933-1.676-58.549-14.053-17.343-12.918-30.69-30.2-33.863-52.02-0.449-3.09-1.45-7.838-0.273-10.68 2.716 8.988 8.347 18.042 14.671 24.925 15.511 16.881 36.588 27.803 59.735 28.705 21.678 0.844 43.074-7.284 58.855-22.126 15.352-14.439 26.501-35.524 27.055-56.916z" fill="#558DC3"/> <path transform="scale(2.9441)" d="m366.23 254.39-7.926 0.094c12.393-13.058 25.633-25.353 40.501-35.568 32.56-22.371 70.976-33.757 110.32-34.786 52.436-1.37 104.15 20.571 141.85 56.464l13.097 13.976-10.393 0.098-15.936-13.194c-65.174-49.436-157.98-55.485-229.06-14.976-9.085 5.178-17.626 10.869-25.774 17.417-2.728 2.193-5.182 4.561-7.62 7.063-0.649 0.665-2.111 2.598-2.863 2.965-0.926 0.451-4.847 0.262-6.2 0.447z" fill="#FEFEFE"/> <path transform="scale(2.9441)" d="m225.01 675.99c-0.372-4.832-0.021-9.974-0.023-14.834l-0.031-29.324-0.5-84.703-0.048-50.171c-2e-3 -8.534-0.939-18.281 0.664-26.664 3.576-18.704 14.181-32.727 29.718-43.38l-0.186 98.197-0.029 20.979c-5e-3 1.771 0.441 5.078-0.022 6.708-0.205 0.72-1.241 2.004-1.663 2.688l-4.516 7.447c-2.191 3.828-4.078 7.83-5.692 11.932-9.071 23.054-10.477 50.899-2.722 74.495 3.042 9.253 7.699 17.891 12.908 26.076-2.198 0.754-4.859 0.428-7.163 0.427l-13.121-0.032c-2.436-7e-3 -5.179-0.282-7.574 0.159z" fill="#1FD0DF"/> <path transform="scale(2.9441)" d="m768.1 426.1c9.964 2.6 19.232 13.201 24.23 21.76 3.296 5.645 6.038 12.714 6.999 19.202 0.949 6.406 0.626 13.102 0.636 19.571l-0.011 30.466-0.242 113.4 0.222 30.696c0.045 5.191-0.256 10.641 0.205 15.797l9.515 0.182-0.074 25.315-9.518-0.034-0.057-25.118c-3.018-0.618-6.867-0.181-9.974-0.175l-19.807 1e-3c21.159-30.61 23.829-69.942 10.303-104.12-1.883-4.76-4.24-9.363-6.785-13.8-1.352-2.356-4.653-6.477-5.3-8.932-0.508-1.929-0.053-5.221-0.048-7.32l2e-3 -19.915-0.296-96.968z" fill="#1FD0DF"/> <path transform="scale(2.9441)" d="m249.9 606.6c0.991-8.436 2.409-16.143 5.333-24.17 7.819-21.463 23.497-38.8 44.217-48.387 19.879-9.198 42.339-9.711 62.843-2.124 21.357 7.902 37.11 23.234 46.619 43.71 1.998 0.484 4.212 0.273 6.264 0.277l11.343 9e-3 48.019-0.238 139.42-0.264 4.231-7.659c11.687-18.973 31.319-34.281 53.12-39.449 20.816-4.934 41.371-2.077 59.693 9.231 21.852 13.487 34.426 33.985 40.281 58.601l-0.623 0.608c-2.188-4.129-3.952-8.496-6.293-12.538-11.724-20.243-28.783-35.045-51.287-42.051-11.386-3.545-23.817-4.694-35.578-2.309-22.703 4.603-41.25 16.927-54.324 36.179-2.279 3.357-4.421 6.781-6.054 10.502l-209.3 0.184 0.497 7.145c-2.446-5.538-4.604-11.358-7.567-16.641-8.204-14.632-22.614-26.229-38.25-32.177-18.497-7.036-42.002-7.532-60.179 0.841-21.437 9.874-37.457 24.645-45.568 47.072-2.655 7.341-3.989 14.638-5.725 22.19l-1.125-8.542z" fill="#FEFEFE"/> <path transform="scale(2.9441)" d="m366.23 254.39c1.353-0.185 5.274 4e-3 6.2-0.447 0.752-0.367 2.214-2.3 2.863-2.965 2.438-2.502 4.892-4.87 7.62-7.063 8.148-6.548 16.689-12.239 25.774-17.417 71.078-40.509 163.89-34.46 229.06 14.976l15.936 13.194-287.46-0.278z" fill="#B3E4E5"/> <path transform="scale(2.9441)" d="m412.35 633.28 0.457 0.316c4.79 3.386 8.869 7.824 13.017 11.948l17.883 17.833 68.151 68.246 46.475-46.767 35.577-36.016c4.957-4.902 10.422-11.418 16.303-15.114 1.337 13.415 3.885 26.186 8.971 38.702 1.566 2.271 2.635 5.227 4.077 7.653 5.927 9.971 12.425 16.889 22.166 23.228-4.711 3.708-8.947 8.412-13.167 12.665l-23.648 24.384-59.257 61.289-21.885 22.587c-3.513 3.583-7.12 7.894-11.127 10.873-1.496 1.112-2.909 2.015-4.847 1.903-1.66-0.096-3.271-1.21-4.466-2.286-4.527-4.076-8.633-8.751-12.895-13.104l-25.783-26.368-89.786-90.806c11.56-9.358 19.511-19.226 25.544-32.833 4.991-12.445 6.731-25.117 8.24-38.333z" fill="#10A2CF"/> <path transform="scale(2.9441)" d="m412.35 633.28 0.457 0.316c4.79 3.386 8.869 7.824 13.017 11.948l17.883 17.833 68.151 68.246 46.475-46.767 35.577-36.016c4.957-4.902 10.422-11.418 16.303-15.114 1.337 13.415 3.885 26.186 8.971 38.702l-106.84 108.07-72.735-72.615-22.204-22.63c-4.342-4.36-9.579-8.763-13.298-13.636 4.991-12.445 6.731-25.117 8.24-38.333z" fill="#1FD0DF"/> <path transform="scale(2.9441)" d="m251.03 615.15c1.736-7.552 3.07-14.849 5.725-22.19 8.111-22.427 24.131-37.198 45.568-47.072 18.177-8.373 41.682-7.877 60.179-0.841 15.636 5.948 30.046 17.545 38.25 32.177 2.963 5.283 5.121 11.103 7.567 16.641l-0.497-7.145 209.3-0.184c1.633-3.721 3.775-7.145 6.054-10.502 13.074-19.252 31.621-31.576 54.324-36.179 11.761-2.385 24.192-1.236 35.578 2.309 22.504 7.006 39.563 21.808 51.287 42.051 2.341 4.042 4.105 8.409 6.293 12.538l0.623-0.608 0.817 3.766c-0.554 21.392-11.703 42.477-27.055 56.916-15.781 14.842-37.177 22.97-58.855 22.126-23.147-0.902-44.224-11.824-59.735-28.705-6.324-6.883-11.955-15.937-14.671-24.925l-0.15-0.551c-1.357-5.182-1.212-10.696-1.312-16.019h-0.633c-0.295 8.246-0.708 16.799 0.53 24.974-5.881 3.696-11.346 10.212-16.303 15.114l-35.577 36.016-46.475 46.767-68.151-68.246-17.883-17.833c-4.148-4.124-8.227-8.562-13.017-11.948l-0.457-0.316c0.774-7.157 0.757-14.13-0.058-21.278-0.335 5.499-0.789 10.775-2.153 16.135-1.967 6.703-4.363 12.297-8.564 17.95-13.474 18.134-35.355 29.994-57.489 33.318-21.097 3.169-43.422-2.184-60.581-14.98-15.115-11.271-29.676-30.148-32.481-49.276z" fill="#8BCEFB"/> <path transform="scale(2.9441)" d="m466.62 601.75c3.684-0.867 9.062-0.255 12.911-0.269l30.682-0.087 33.412 0.012c4.343 0.011 9.843-0.55 14.055 0.21 1.256 0.226 2.024 1.029 2.882 1.884 0.684 1.587 0.632 2.55 0.429 4.25-1.099 1.567-1.384 1.727-3.033 2.5-3.239 0.705-7.195 0.254-10.553 0.256l-21.526-7e-3 -39.106 0.035-19.268-0.028c-1.339-0.065-2.336-0.665-3.133-1.756-1.001-1.368-0.854-2.66-0.711-4.233 0.876-1.547 1.383-1.946 2.959-2.767z" fill="#1C469B"/> <path transform="scale(2.9441)" d="m684.04 565.67c2.958-0.446 6.744-0.373 9.708 0.105 6.149 0.991 11.807 2.713 17.125 6.013 8.828 5.48 15.725 14.378 18.096 24.577l0.199 0.888 0.405 1.829c1.91 10.183-0.952 21.511-6.822 29.935-6.445 9.249-16.226 14.852-27.177 16.886-9.768 1.446-20.053-0.104-28.294-5.777-9.062-6.237-16.067-15.662-17.933-26.658-1.934-11.399 0.751-22.531 7.495-31.903 6.653-9.245 16.11-14.152 27.198-15.895z" fill="#1C469B"/> <path transform="scale(2.9441)" d="m664 592.11c3.842-6.789 10.265-11.737 17.747-13.894 6.604-1.904 14.72-0.764 20.662 2.539 6.683 3.716 10.647 9.28 13.358 16.312-3.017 2.77-6.094 6.026-9.484 8.313-5.601 3.778-12.803 4.715-19.344 3.388-10.408-2.112-17.196-8.101-22.939-16.658z" fill="#FEEF20"/> <path transform="scale(2.9441)" d="m664 592.11c5.743 8.557 12.531 14.546 22.939 16.658 6.541 1.327 13.743 0.39 19.344-3.388 3.39-2.287 6.467-5.543 9.484-8.313 1.555 5.679 1.63 12.763-0.435 18.316-2.505 6.74-8.007 12.602-14.58 15.545-6.697 2.998-15.251 2.864-22.044 0.27-6.616-2.526-12.629-8.327-15.273-14.907-3.262-8.118-2.991-16.248 0.565-24.181z" fill="#FE6683"/> <path transform="scale(2.9441)" d="m315.7 557.25 1.804-0.273c6.619-0.398 13.469-0.076 20.109-0.082 3.861-3e-3 8.881-0.581 12.641 0.269 1.008 0.228 1.707 0.764 2.43 1.471 0.79 0.773 1.407 1.757 1.58 2.867 0.407 2.617 0.125 5.725 0.135 8.39l7e-3 15.693c5.346-0.039 24.875-1.475 28.29 1.434 1.717 1.462 2.121 3.31 2.208 5.481l0.106 20.488c-3e-3 3.012 0.406 6.743-0.187 9.685-0.274 1.357-1.104 2.841-2.095 3.807-2.385 2.323-23.992 1.191-28.424 1.156l0.135 16.373c9e-3 2.089 0.375 5.056-0.148 7.043-0.556 2.113-1.581 2.997-3.335 4.198-1.798 0.616-3.583 0.618-5.464 0.664-5.045 0.124-29.033 1.262-31.651-1.49-2.529-2.659-1.859-6.915-1.87-10.309l0.028-16.636c-5.274 9e-3 -25.458 1.279-28.745-1.626-1.188-1.05-1.762-1.987-1.832-3.603l-0.067-20.287c2e-3 -3.702-0.458-8.101 0.149-11.713 0.196-1.164 0.624-2.081 1.449-2.926 0.692-0.709 1.716-1.251 2.68-1.442 2.787-0.552 6.081-0.261 8.94-0.285l17.466-0.128 0.023-16.189c0.018-2.893-0.243-6.213 0.692-8.99 0.557-1.655 1.483-2.26 2.946-3.04z" fill="#1C469B"/> <path transform="scale(2.9441)" d="m321.86 566.96 22.456 0.067 0.162 27.968 30.015 0.127-0.026 22.469-30.178-0.031-0.054 27.872-22.443-0.113 0.152-27.619-30.187-9e-3 0.04-22.252 29.818 8e-3 0.245-28.487z" fill="#FEEF20"/> <path transform="scale(2.9441)" d="m310.28 270.7 34.933-0.215 260.62 0.026 74.474-7e-3 22.071 4e-3c4.722 7e-3 9.514-0.219 14.195 0.478 8.959 1.332 17.078 5.609 23.433 12.03 5.986 6.048 10.633 13.649 12.093 22.135 1.144 6.654 0.452 14.247 0.45 21.041l0.095 38.388-0.175 169.88-13.556-9.327c-21.875-13.511-46.505-17.574-71.51-11.693-19.394 5.44-37.512 16.309-50.373 32.04-4.164 5.094-7.561 10.819-10.956 16.44l-188.98-0.153-6.726-11.196c-12.991-18.447-36.099-31.851-58.228-35.698-21.123-3.673-43.917-1.174-63.131 8.562-6.313 3.199-12.13 7.381-17.921 11.423l0.15-147.38-0.171-51.807-0.045-18.375c4e-3 -5.144-0.146-10.354 1.141-15.376 1.229-4.791 2.73-8.93 5.512-13.089 5.952-8.895 16.101-15.294 26.534-17.353l6.077-0.779z" fill="#FEFEFE"/> <path transform="scale(2.9441)" d="m484.11 516.55 0.307-0.488c3.917-6.029 11.456-10.856 18.508-12.198l0.759-0.137c4.704-0.885 9.797-1.198 14.547-0.466l4.521 0.718c8.075 1.325 14.99 5.382 21.802 9.684-7.235 8.7-15.378 15.463-27.117 16.46-11.425 0.97-21.65-3.229-30.267-10.562l-3.06-3.011z" fill="#FE6683"/> <path transform="scale(2.9441)" d="m484.11 516.55c-11.703-11.903-14.4-24.452-15.07-40.574l88.708 0.026c-2.397 12.887-5.521 26.827-13.194 37.661-6.812-4.302-13.727-8.359-21.802-9.684l-4.521-0.718c-4.75-0.732-9.843-0.419-14.547 0.466l-0.759 0.137c-7.052 1.342-14.591 6.169-18.508 12.198l-0.307 0.488z" fill="#1C469B"/> <path transform="scale(2.9441)" d="m392.76 339.2c18.132-1.412 34.718 3.492 49.172 14.604 14.878 11.439 23.616 28.745 25.853 47.163 2.187 18.007-2.521 37.239-13.871 51.528-12.445 15.67-28.776 25.566-48.693 27.822-4.256 0.552-9.5 0.415-13.751-0.149-13.103-1.738-24.132-6.115-34.572-14.372-15.504-12.263-25.25-29.842-27.262-49.49-1.899-18.544 4.08-38.089 15.952-52.442 11.681-14.122 29.066-22.893 47.172-24.664z" fill="#1FD0DF"/> <path transform="scale(2.9441)" d="m355.94 446.94c-10.69-12.796-15.339-27.088-13.802-43.823 1.357-14.778 8.892-28.979 20.271-38.494 11.831-9.893 27.243-14.441 42.538-12.995 14.085 1.331 28.348 9.241 37.36 20.125 6.514 7.868 10.123 16.349 12.472 26.214 3.471 14.573-0.781 31.154-8.646 43.603-2.506 3.968-5.683 7.917-9.425 10.781 0.075-2.053 1.515-4.531 2.273-6.492 2.424-6.268 4.06-13.101 3.437-19.869-0.257-2.786-1.132-5.766-2.125-8.377-0.499-1.31-1.207-2.387-1.429-3.798l-0.122-0.861 0.158-1.288c1.071-10.191-2.521-21.871-8.967-29.862-6.296-7.807-16.241-13.405-26.285-14.373-11.607-1.118-22.161 1.654-31.154 9.211-8.688 7.302-14.413 17.778-15.426 29.125-2.753 3.793-4.525 9.619-5.112 14.236l-0.121 0.918c-0.623 5.276 0.281 11.62 1.602 16.756 0.695 2.705 2.789 6.572 2.503 9.263z" fill="#FEFEFE"/> <path transform="scale(2.9441)" d="m357.06 405.76c1.013-11.347 6.738-21.823 15.426-29.125 8.993-7.557 19.547-10.329 31.154-9.211 10.044 0.968 19.989 6.566 26.285 14.373 6.446 7.991 10.038 19.671 8.967 29.862l-0.158 1.288 0.122 0.861c0.222 1.411 0.93 2.488 1.429 3.798 0.993 2.611 1.868 5.591 2.125 8.377 0.623 6.768-1.013 13.601-3.437 19.869-0.758 1.961-2.198 4.439-2.273 6.492-0.206 0.724-3.166 2.834-3.946 3.418-12.37 9.272-26.872 13.755-42.262 11.392-12.885-1.979-26.806-9.631-34.56-20.221 0.286-2.691-1.808-6.558-2.503-9.263-1.321-5.136-2.225-11.48-1.602-16.756l0.121-0.918c0.587-4.617 2.359-10.443 5.112-14.236z" fill="#1C469B"/> <path transform="scale(2.9441)" d="m411.49 376.1c3.647-0.294 7.235 0.252 10.475 1.994 3.526 1.895 6.405 5.51 7.537 9.343 1.171 3.964 0.626 8.966-1.449 12.554-2.4 4.148-6.034 5.813-10.404 7.11-3.834 0.439-7.419 0.166-10.903-1.695-3.736-1.996-7.011-6.053-8.002-10.191-1-4.178-0.088-9.147 2.272-12.698 2.576-3.876 6.116-5.48 10.474-6.417z" fill="#FEFEFE"/> <path transform="scale(2.9441)" d="m357.06 405.76c0.736 12.74 3.226 23.7 13.132 32.652 7.753 7.005 19.146 11.015 29.567 10.431l3.824-0.315c9.9-0.926 19.66-6.716 25.894-14.338 5.144-6.289 7.991-13.251 9.257-21.243l0.122 0.861c0.222 1.411 0.93 2.488 1.429 3.798 0.993 2.611 1.868 5.591 2.125 8.377 0.623 6.768-1.013 13.601-3.437 19.869-0.758 1.961-2.198 4.439-2.273 6.492-0.206 0.724-3.166 2.834-3.946 3.418-12.37 9.272-26.872 13.755-42.262 11.392-12.885-1.979-26.806-9.631-34.56-20.221 0.286-2.691-1.808-6.558-2.503-9.263-1.321-5.136-2.225-11.48-1.602-16.756l0.121-0.918c0.587-4.617 2.359-10.443 5.112-14.236z" fill="#8BCEFB"/> <path transform="scale(2.9441)" d="m621.26 339.21c17.228-0.682 33.348 4.102 46.993 14.823 15.921 12.51 25.049 30.535 27.319 50.468 2.107 18.506-3.007 37.157-14.684 51.733-12.869 16.063-28.826 23.457-48.858 25.698-18.372 0.307-34.305-3.503-48.742-15.491-14.411-11.966-25.122-30.336-26.765-49.196-1.739-19.957 3.256-38.358 16.37-53.795 12.732-14.989 28.919-22.705 48.367-24.24z" fill="#1FD0DF"/> <path transform="scale(2.9441)" d="m589.34 454.19c-11.793-9.886-18.361-23.674-20.482-38.688-1.241-8.788 0.234-18.584 3.407-26.873 5.462-14.273 16.66-26.37 30.708-32.491 13.462-5.866 29.334-5.788 42.93-0.41 14.724 5.824 27.011 18.259 33.141 32.884 6.395 15.257 5.526 31.329-0.718 46.482-1.291-3.534-1.308-7.655-2.458-11.347-0.869-2.788-2.107-5.568-3.568-8.096-0.811-1.403-3.389-3.893-3.726-5.215-0.35-1.375 0.311-2.302-0.377-3.815-1.349-11.842-5.942-22.648-15.417-30.277-8.538-6.874-20.58-9.406-31.317-8.159-10.972 1.275-20.555 6.802-27.328 15.495-6.363 8.166-9.766 19.31-8.47 29.627l2.175 9.398c-2.293 1.567-3.158 3.671-3.638 6.375-1.259 7.089 0.331 14.245 3.454 20.603 0.403 0.82 1.994 3.281 2.046 4.037 0.014 0.198-0.241 0.313-0.362 0.47z" fill="#FEFEFE"/> <path transform="scale(2.9441)" d="m587.84 422.7-2.175-9.398c-1.296-10.317 2.107-21.461 8.47-29.627 6.773-8.693 16.356-14.22 27.328-15.495 10.737-1.247 22.779 1.285 31.317 8.159 9.475 7.629 14.068 18.435 15.417 30.277 0.688 1.513 0.027 2.44 0.377 3.815 0.337 1.322 2.915 3.812 3.726 5.215 1.461 2.528 2.699 5.308 3.568 8.096 1.15 3.692 1.167 7.813 2.458 11.347-6.174 13.731-16.632 25.329-30.952 30.772-14.806 5.628-30.091 4.307-44.314-2.251-5.038-2.323-9.852-5.429-13.72-9.425 0.121-0.157 0.376-0.272 0.362-0.47-0.052-0.756-1.643-3.217-2.046-4.037-3.123-6.358-4.713-13.514-3.454-20.603 0.48-2.704 1.345-4.808 3.638-6.375z" fill="#1C469B"/> <path transform="scale(2.9441)" d="m610.4 375.07c3.78-0.249 6.85-0.246 10.276 1.681 3.501 1.969 6.256 5.289 7.281 9.203 1.126 4.299 0.151 9.004-2.066 12.797-2.664 4.561-6.762 7.324-11.756 8.778-2.998 0.369-6.107 0.216-8.885-1.054-4.443-2.032-7.538-5.664-9.114-10.24-1.2-3.486-1.022-7.346 0.659-10.632 2.913-5.695 7.638-8.748 13.605-10.533z" fill="#FEFEFE"/> <path transform="scale(2.9441)" d="m668.2 406.62c0.688 1.513 0.027 2.44 0.377 3.815 0.337 1.322 2.915 3.812 3.726 5.215 1.461 2.528 2.699 5.308 3.568 8.096 1.15 3.692 1.167 7.813 2.458 11.347-6.174 13.731-16.632 25.329-30.952 30.772-14.806 5.628-30.091 4.307-44.314-2.251-5.038-2.323-9.852-5.429-13.72-9.425 0.121-0.157 0.376-0.272 0.362-0.47-0.052-0.756-1.643-3.217-2.046-4.037-3.123-6.358-4.713-13.514-3.454-20.603 0.48-2.704 1.345-4.808 3.638-6.375 3.473 10.038 10.779 18.993 20.061 24.209 8.534 4.796 19.266 6.003 28.71 3.389l0.884-0.252c6.641-1.849 12.521-5.245 17.553-9.949 9.642-9.016 12.805-20.658 13.149-33.481z" fill="#B3E4E5"/> </svg>